<svg width="170" height="71" viewBox="0 0 170 71" fill="none" xmlns="http://www.w3.org/2000/svg">
<path d="M33.1707 3.42566C37.186 5.55609 40.2952 8.5426 42.4974 12.3896C44.6986 16.2366 45.8002 20.6766 45.8002 25.7083C45.8002 30.6933 44.6986 35.1203 42.4974 38.9913C40.2952 42.863 37.1736 45.8627 33.1342 47.991C29.0935 50.1213 24.4122 51.1851 19.09 51.1851H0V0.2323H19.09C24.4606 0.2323 29.1542 1.29742 33.1707 3.42566ZM29.2511 36.5957C31.8635 34.0317 33.1707 30.4026 33.1707 25.7083C33.1707 21.0153 31.8635 17.3616 29.2511 14.748C26.6382 12.1353 22.9841 10.829 18.2913 10.829H12.4122V40.4427H18.2913C22.9841 40.4427 26.6382 39.161 29.2511 36.5957Z" fill="#FE9900"/>
<path d="M58.6255 12.1725C60.8031 10.8908 63.2222 10.2483 65.8843 10.2483V23.3864H62.4724C59.3759 23.3864 57.0524 24.0516 55.5048 25.3819C53.9558 26.7131 53.1821 29.0468 53.1821 32.3866V51.1851H40.7705V10.684H53.1821V17.4344C54.6343 15.2093 56.4485 13.4548 58.6255 12.1725Z" fill="#FE9900"/>
<path d="M108.335 10.1033L82.4371 71H68.823L78.2941 49.986L61.498 10.1033H75.6305L85.175 35.927L94.6467 10.1033H108.335Z" fill="#FE9900"/>
<path d="M116.669 38.9913L125.451 10.1033H138.661L124.289 50.6044H108.975L94.6035 10.1033H107.886L116.669 38.9913Z" fill="#FE9900"/>
<path d="M128.786 19.9022C130.358 16.7568 132.499 14.3385 135.209 12.6437C137.919 10.9505 140.943 10.1033 144.282 10.1033C147.136 10.1033 149.641 10.6838 151.794 11.8453C153.947 13.0067 155.605 14.5309 156.767 16.418V10.6838H169.178V51.185H156.767V45.451C155.557 47.3381 153.874 48.8624 151.722 50.0237C149.568 51.185 147.064 51.7657 144.209 51.7657C140.918 51.7657 137.919 50.9075 135.209 49.1887C132.499 47.4721 130.358 45.0277 128.786 41.8583C127.213 38.6896 126.427 35.024 126.427 30.8616C126.427 26.7006 127.213 23.0474 128.786 19.9022ZM154.19 23.6041C152.472 21.8139 150.379 20.9178 147.911 20.9178C145.444 20.9178 143.351 21.8015 141.633 23.5676C139.915 25.3345 139.056 27.7658 139.056 30.8616C139.056 33.9596 139.915 36.4143 141.633 38.2285C143.351 40.0433 145.444 40.9512 147.911 40.9512C150.379 40.9512 152.472 40.0557 154.19 38.2656C155.906 36.4755 156.767 34.0317 156.767 30.9345C156.767 27.8387 155.906 25.3948 154.19 23.6041Z" fill="#FE9900"/>
<g style="mix-blend-mode:multiply" opacity="0.376694">
<path d="M40.7705 41.7086C41.3965 40.8881 41.9745 40.0222 42.4974 39.1034C44.6986 35.2324 45.8002 30.8047 45.8002 25.8204C45.8002 20.7887 44.6986 16.3486 42.4974 12.5017C42.1586 11.9107 41.7917 11.3464 41.4103 10.796H40.7705V41.7086Z" fill="#570505"/>
</g>
<g style="mix-blend-mode:multiply" opacity="0.376694">
<path d="M65.8845 20.6312V10.3602C64.4509 10.3602 63.0896 10.5533 61.7969 10.9251L65.8845 20.6312Z" fill="#570505"/>
</g>
<g style="mix-blend-mode:multiply" opacity="0.376694">
<path d="M100.85 27.818L108.074 10.8315L107.887 10.2156H94.6469L94.625 10.2756L100.85 27.818Z" fill="#570505"/>
</g>
<g style="mix-blend-mode:multiply" opacity="0.376694">
<path d="M135.209 12.7559C132.5 14.4498 130.358 16.8688 128.786 20.0142C127.213 23.1595 126.427 26.8127 126.427 30.9737C126.427 34.3856 126.964 37.4574 128.02 40.2021L138.296 11.2461C137.225 11.6378 136.196 12.1394 135.209 12.7559Z" fill="#570505"/>
</g>
</svg>
